<svg xmlns="http://www.w3.org/2000/svg" version="1.1" viewBox="1.81 162 496.69 168.98">
<path d="M0 0 C12.54 0 25.08 0 38 0 C38.33 17.49 38.66 34.98 39 53 C41.97 50.69 44.94 48.38 48 46 C62.17162092 38.06025853 79.43501303 37.19967024 95 41 C107.84774377 45.8802716 115.71924986 53.27995343 121.6875 65.4375 C124.34119361 72.64038267 125.29660493 79.45328105 125.22705078 87.09985352 C125.22734283 87.95948196 125.22763489 88.81911041 125.22793579 89.70478821 C125.22655553 92.5129345 125.21105646 95.32080699 125.1953125 98.12890625 C125.19157773 100.08902339 125.18873295 102.04914241 125.18673706 104.00926208 C125.17913718 109.14337407 125.15952031 114.27737111 125.1373291 119.41143799 C125.11317464 125.58481725 125.10407233 131.75823516 125.09242249 137.93164825 C125.07309357 147.2878452 125.03474557 156.64379043 125 166 C112.46 166 99.92 166 87 166 C86.96261719 160.45058594 86.92523438 154.90117187 86.88671875 149.18359375 C86.85643053 145.66077667 86.82527713 142.13800959 86.79101562 138.61523438 C86.73675733 133.02793947 86.68564469 127.44074348 86.65356445 121.85327148 C86.62748974 117.34677993 86.58705795 112.84062184 86.53681374 108.33433723 C86.52017317 106.61806459 86.50864142 104.9017343 86.50238609 103.18539238 C86.49271423 100.77485353 86.46461931 98.3651624 86.43237305 95.95483398 C86.43380814 95.25064331 86.43524323 94.54645264 86.4367218 93.82092285 C86.34189638 88.78455046 85.14362528 85.45389815 83 81 C82.67 80.01 82.34 79.02 82 78 C81.34 78 80.68 78 80 78 C80 77.34 80 76.68 80 76 C70.70342658 71.89857055 61.57163723 72.24207063 52 75 C50.66791089 75.33827132 49.33487878 75.6729105 48 76 C48 76.66 48 77.32 48 78 C47.2575 78.680625 46.515 79.36125 45.75 80.0625 C38.8837612 86.87575716 38.47528138 95.10927548 38.39434814 104.30213928 C38.3926856 105.89022789 38.39145441 107.47831699 38.390625 109.06640625 C38.37562363 110.71265779 38.35889241 112.35889438 38.34051514 114.00511169 C38.29704857 118.31060525 38.27688882 122.61589585 38.26177979 126.92156982 C38.23867149 132.10225719 38.18626597 137.28272309 38.13883972 142.46323395 C38.07026065 150.30888005 38.03862224 158.15389191 38 166 C25.46 166 12.92 166 0 166 C0 111.22 0 56.44 0 0 Z " fill="#484C4E" transform="translate(165,162)"/>
<path d="M0 0 C2.08009372 0.01609829 4.15824559 0.0000534 6.23828125 -0.01904297 C23.6082934 -0.04685971 39.82289144 5.35409465 54.08203125 15.39111328 C54.08203125 16.05111328 54.08203125 16.71111328 54.08203125 17.39111328 C54.63890625 17.61798828 55.19578125 17.84486328 55.76953125 18.07861328 C59.28171665 20.0720158 62.16557251 22.59678854 64.02124023 26.22998047 C64.08203125 28.39111328 64.08203125 28.39111328 62.17602539 30.86474609 C60.78565063 32.21584473 60.78565063 32.21584473 59.3671875 33.59423828 C58.87745956 34.07689148 58.38773163 34.55954468 57.88316345 35.05682373 C56.31494898 36.59702963 54.73026095 38.11896632 53.14453125 39.64111328 C52.07894712 40.68162294 51.01447879 41.72327662 49.95117188 42.76611328 C47.34094614 45.32118554 44.71566273 47.86014825 42.08203125 50.39111328 C39.15356449 48.96379335 36.56786062 47.52182417 34.08203125 45.39111328 C34.08203125 44.73111328 34.08203125 44.07111328 34.08203125 43.39111328 C33.355 43.11267578 32.62796875 42.83423828 31.87890625 42.54736328 C29.25909385 41.46431235 26.82861285 40.22915048 24.33203125 38.89111328 C13.54164837 33.52756519 0.26074524 32.33786033 -11.41796875 35.64111328 C-12.93168324 36.18787303 -14.43344967 36.76943742 -15.91796875 37.39111328 C-16.61148438 37.66955078 -17.305 37.94798828 -18.01953125 38.23486328 C-23.5893997 40.72947618 -30.12368059 44.80253696 -32.91796875 50.39111328 C-33.57796875 50.39111328 -34.23796875 50.39111328 -34.91796875 50.39111328 C-35.18609375 51.11298828 -35.45421875 51.83486328 -35.73046875 52.57861328 C-36.91796875 55.39111328 -36.91796875 55.39111328 -38.38671875 57.69580078 C-44.42203561 68.31919015 -44.45036426 83.20849265 -41.74609375 94.87548828 C-39.40130088 101.99834965 -36.26215273 108.13946929 -30.91796875 113.39111328 C-30.91796875 114.05111328 -30.91796875 114.71111328 -30.91796875 115.39111328 C-30.04398438 115.81070313 -30.04398438 115.81070313 -29.15234375 116.23876953 C-27.05029053 117.32287041 -25.13721891 118.52256101 -23.16796875 119.82861328 C-11.55889363 127.17092012 2.66279492 128.17910032 16.01953125 125.76611328 C25.65946151 123.0548829 33.59694277 116.78834726 41.08203125 110.39111328 C46.11903702 114.66374853 51.0467652 119.03012082 55.89453125 123.51611328 C56.56162109 124.12326172 57.22871094 124.73041016 57.91601562 125.35595703 C58.55474609 125.94763672 59.19347656 126.53931641 59.8515625 127.14892578 C60.71164917 127.94000732 60.71164917 127.94000732 61.58911133 128.74707031 C63.19251107 130.51277658 64.11788438 132.219792 65.08203125 134.39111328 C47.55163707 152.48700405 28.59783932 160.67539622 3.50341797 161.359375 C-18.75695681 161.65115245 -36.59654641 155.99889618 -54.91796875 143.39111328 C-55.71203125 142.84712891 -56.50609375 142.30314453 -57.32421875 141.74267578 C-57.85015625 141.29666016 -58.37609375 140.85064453 -58.91796875 140.39111328 C-58.91796875 139.73111328 -58.91796875 139.07111328 -58.91796875 138.39111328 C-59.57796875 138.39111328 -60.23796875 138.39111328 -60.91796875 138.39111328 C-62.59788923 136.49062771 -64.14136796 134.59745688 -65.66796875 132.57861328 C-66.1160791 131.98910889 -66.56418945 131.39960449 -67.02587891 130.79223633 C-80.84276745 112.25586565 -86.03503866 91.34937893 -83.484375 68.50830078 C-81.57611146 57.3431812 -77.49782957 44.78569235 -70.91796875 35.39111328 C-70.25796875 35.39111328 -69.59796875 35.39111328 -68.91796875 35.39111328 C-68.91796875 34.40111328 -68.91796875 33.41111328 -68.91796875 32.39111328 C-68.25796875 32.39111328 -67.59796875 32.39111328 -66.91796875 32.39111328 C-66.67046875 31.83423828 -66.42296875 31.27736328 -66.16796875 30.70361328 C-57.95938512 15.51773357 -38.95341862 7.56895282 -23.33105469 2.56201172 C-15.5608377 0.34832705 -8.03323079 -0.07375141 0 0 Z " fill="#484C4F" transform="translate(85.91796875,169.60888671875)"/>
<path d="M0 0 C0.84046875 0.59683594 1.6809375 1.19367188 2.546875 1.80859375 C16.69324969 12.46124257 24.33441994 26.65990807 27 44 C28.92644848 61.64626809 24.68106294 78.97078069 13.6171875 93.02734375 C11.48766863 95.46841602 9.40525447 97.82988243 7 100 C6.34 100 5.68 100 5 100 C5 100.66 5 101.32 5 102 C2.98949238 103.55524069 1.0096048 104.94518543 -1.125 106.3125 C-1.74938965 106.71404297 -2.3737793 107.11558594 -3.01708984 107.52929688 C-9.33710205 111.4443207 -15.86579537 113.891739 -23 116 C-23.89199097 116.26828613 -23.89199097 116.26828613 -24.80200195 116.54199219 C-29.93476829 117.6115323 -35.34125155 117.22850232 -40.5625 117.25 C-42.40038086 117.2809375 -42.40038086 117.2809375 -44.27539062 117.3125 C-52.01636551 117.34549297 -58.67662208 116.51738709 -66 114 C-67.10472656 113.62359375 -68.20945312 113.2471875 -69.34765625 112.859375 C-76.12039793 110.09180862 -82.46406993 106.86231026 -88 102 C-88 101.34 -88 100.68 -88 100 C-88.639375 99.731875 -89.27875 99.46375 -89.9375 99.1875 C-92 98 -92 98 -93 95 C-93.66 95 -94.32 95 -95 95 C-106.99016992 80.31005673 -111.25568485 62.87005913 -109.40625 44.14453125 C-107.73810368 31.23243713 -102.28804656 15.63968551 -92 7 C-91.34 7 -90.68 7 -90 7 C-89.67 6.01 -89.34 5.02 -89 4 C-65.54450362 -16.36670673 -25.19513941 -18.12507478 0 0 Z M-62 28 C-62 28.66 -62 29.32 -62 30 C-62.99 30.33 -63.98 30.66 -65 31 C-70.8610707 39.99488018 -72.16377229 49.67681845 -70.69140625 60.20703125 C-70.24671767 62.20222689 -69.68664485 64.075013 -69 66 C-68.76667969 66.65613281 -68.53335938 67.31226563 -68.29296875 67.98828125 C-65.4618573 74.64591776 -60.09290771 79.98029717 -53.609375 83.1796875 C-45.1896504 85.82660691 -36.17896346 85.82392879 -28.13671875 82.1484375 C-20.16243335 77.94785033 -16.37513743 72.08982356 -13 64 C-10.27332136 54.14200801 -11.61880241 43.52409542 -16.0625 34.4375 C-20.24926817 27.37004003 -26.02538846 23.29486307 -33.875 21.0625 C-43.73866622 18.7160153 -54.46361189 21.16467125 -62 28 Z " fill="#484C4F" transform="translate(415,213)"/>
<path d="M0 0 C0.639375 0.61875 1.27875 1.2375 1.9375 1.875 C1.9375 2.535 1.9375 3.195 1.9375 3.875 C2.5975 3.875 3.2575 3.875 3.9375 3.875 C7.89437677 10.71534548 7.82322329 17.15182398 6.9375 24.875 C5.00749937 30.18845854 1.59898103 33.72850031 -3.0625 36.875 C-3.79082031 37.39449219 -4.51914062 37.91398437 -5.26953125 38.44921875 C-11.34199436 41.54914747 -19.59159852 40.81295902 -26.0546875 39.06640625 C-32.35154729 36.30076418 -36.17689411 32.09342744 -39.0625 25.875 C-40.61817558 19.63332601 -41.06789569 12.73435672 -38.0625 6.875 C-33.82154063 0.91399488 -29.54084036 -4.03565544 -22.24609375 -5.79296875 C-13.43968122 -7.13204758 -7.33999711 -5.09305922 0 0 Z " fill="#23B2C7" transform="translate(491.0625,288.125)"/>
<path d="M0 0 C2.5625 2.25 2.5625 2.25 4 4 C3.01 4 2.02 4 1 4 C1 3.34 1 2.68 1 2 C-7.04926924 -1.11584616 -14.43325085 -1.33328851 -23 -1 C-16.71495859 -7.28504141 -6.69902456 -3.89569994 0 0 Z " fill="#63C0CD" transform="translate(488,286)"/>
<path d="M0 0 C3.60296594 -0.41176754 4.78402067 -0.1535853 7.8125 2 C8.534375 2.66 9.25625 3.32 10 4 C8.8125 5.5625 8.8125 5.5625 7 7 C3.65807308 6.75546876 2.39456443 6.39456443 0 4 C0 2.68 0 1.36 0 0 Z M-2 5 C-1.34 5 -0.68 5 0 5 C-0.33 5.66 -0.66 6.32 -1 7 C-1.33 6.34 -1.66 5.68 -2 5 Z " fill="#535659" transform="translate(122,177)"/>
<path d="M0 0 C0.33 0 0.66 0 1 0 C1.36205464 1.95689037 1.71441421 3.91557668 2.0625 5.875 C2.25972656 6.96554687 2.45695312 8.05609375 2.66015625 9.1796875 C3 12 3 12 2 14 C1.77532169 15.53668865 1.59203195 17.07968054 1.4375 18.625 C1.35371094 19.44226563 1.26992188 20.25953125 1.18359375 21.1015625 C1.12300781 21.72804688 1.06242187 22.35453125 1 23 C0.67 23 0.34 23 0 23 C-1.33257403 7.25512528 -1.33257403 7.25512528 0 0 Z " fill="#767777" transform="translate(306,254)"/>
<path d="M0 0 C-0.78375 0.61875 -1.5675 1.2375 -2.375 1.875 C-4.96837647 3.89858661 -4.96837647 3.89858661 -7 6 C-8.32 6 -9.64 6 -11 6 C-11 4.68 -11 3.36 -11 2 C-3.57142857 -1.57142857 -3.57142857 -1.57142857 0 0 Z " fill="#575A5C" transform="translate(58,176)"/>
<path d="M0 0 C1.32 1.65 2.64 3.3 4 5 C2.71475739 5.86380259 1.42157581 6.71580369 0.125 7.5625 C-0.59429688 8.03816406 -1.31359375 8.51382813 -2.0546875 9.00390625 C-2.69664063 9.33261719 -3.33859375 9.66132813 -4 10 C-4.66 9.67 -5.32 9.34 -6 9 C-5.34 7.68 -4.68 6.36 -4 5 C-3.34 5 -2.68 5 -2 5 C-2 4.01 -2 3.02 -2 2 C-1.34 2 -0.68 2 0 2 C0 1.34 0 0.68 0 0 Z " fill="#5C5F62" transform="translate(19,200)"/>
<path d="M0 0 C0.99 0 1.98 0 3 0 C3 0.99 3 1.98 3 3 C2.34 3 1.68 3 1 3 C1 3.66 1 4.32 1 5 C-0.75 6.2890625 -0.75 6.2890625 -3 7.625 C-3.7425 8.07101562 -4.485 8.51703125 -5.25 8.9765625 C-5.8275 9.31429688 -6.405 9.65203125 -7 10 C-6.6875 8.0625 -6.6875 8.0625 -6 6 C-5.01 5.67 -4.02 5.34 -3 5 C-1.8499169 3.03327085 -1.8499169 3.03327085 -1 1 C-0.67 0.67 -0.34 0.34 0 0 Z " fill="#575B5C" transform="translate(419,310)"/>
<path d="M0 0 C0.33 0 0.66 0 1 0 C1.32728047 3.60008519 1.40422813 5.41611492 -0.6875 8.4375 C-3 10 -3 10 -5.75 9.75 C-6.4925 9.5025 -7.235 9.255 -8 9 C-6.71034824 7.62437146 -5.37310707 6.29233607 -4 5 C-3.34 5 -2.68 5 -2 5 C-1.34 3.35 -0.68 1.7 0 0 Z " fill="#5F6063" transform="translate(397,285)"/>
<path d="M0 0 C0.66 0.33 1.32 0.66 2 1 C0.14285714 9.71428571 0.14285714 9.71428571 -3 12 C-4 10 -4 10 -3.0625 7.0625 C-2.711875 6.051875 -2.36125 5.04125 -2 4 C-2 3.01 -2 2.02 -2 1 C-1.34 0.67 -0.68 0.34 0 0 Z " fill="#5C5F61" transform="translate(437,283)"/>
<path d="M0 0 C6.0546875 0.390625 6.0546875 0.390625 8 1 C8.66 2.32 9.32 3.64 10 5 C6.37 4.34 2.74 3.68 -1 3 C-0.67 2.01 -0.34 1.02 0 0 Z " fill="#535655" transform="translate(97,201)"/>
<path d="M0 0 C1.32 0.66 2.64 1.32 4 2 C0.535 4.97 0.535 4.97 -3 8 C-3.33 6.68 -3.66 5.36 -4 4 C-3.34 4 -2.68 4 -2 4 C-2 3.34 -2 2.68 -2 2 C-1.34 2 -0.68 2 0 2 C0 1.34 0 0.68 0 0 Z " fill="#5F6162" transform="translate(133,209)"/>
<path d="M0 0 C2.91517292 1.07401108 4.77810176 1.77810176 7 4 C5.02 4.99 3.04 5.98 1 7 C0.67 4.69 0.34 2.38 0 0 Z " fill="#5A5D5F" transform="translate(265,206)"/>
<path d="M0 0 C4 4 4 4 4 6 C3.34 6 2.68 6 2 6 C1.67 8.97 1.34 11.94 1 15 C0.67 15 0.34 15 0 15 C0 10.05 0 5.1 0 0 Z " fill="#656767" transform="translate(403,256)"/>
<path d="M0 0 C0.99 0.33 1.98 0.66 3 1 C1.07423885 3.43929746 -0.80090595 5.80090595 -3 8 C-3.625 6.1875 -3.625 6.1875 -4 4 C-2 1 -2 1 0 0 Z " fill="#6A6B6C" transform="translate(351,240)"/>
<path d="M0 0 C1.5625 1.25 1.5625 1.25 3 3 C2.8125 5.125 2.8125 5.125 2 7 C1.01 7.495 1.01 7.495 0 8 C-0.66 7.34 -1.32 6.68 -2 6 C-1.34 4.02 -0.68 2.04 0 0 Z " fill="#636565" transform="translate(147,192)"/>
<path d="M0 0 C2.97 0.495 2.97 0.495 6 1 C5.125 6.75 5.125 6.75 4 9 C0 2.25 0 2.25 0 0 Z " fill="#6E7070" transform="translate(310,290)"/>
<path d="M0 0 C1.16659166 3.49977498 0.68403157 5.42783513 0 9 C0 9.66 0 10.32 0 11 C-0.66 11 -1.32 11 -2 11 C-3.35384615 4.6 -3.35384615 4.6 -1.5625 1.5625 C-1.046875 1.046875 -0.53125 0.53125 0 0 Z " fill="#444547" transform="translate(317,289)"/>
<path d="M0 0 C2.20914 3.31371 2.22481553 4.3446021 2.125 8.1875 C2.10695313 9.08855469 2.08890625 9.98960937 2.0703125 10.91796875 C2.03550781 11.94857422 2.03550781 11.94857422 2 13 C1.34 13 0.68 13 0 13 C-0.33 13.99 -0.66 14.98 -1 16 C-0.67 10.72 -0.34 5.44 0 0 Z " fill="#38393B" transform="translate(404,260)"/>
<path d="M0 0 C3.26460973 1.80412643 4.88929795 2.83394693 7 6 C5.35 6 3.7 6 2 6 C0 2.25 0 2.25 0 0 Z " fill="#6C6D6E" transform="translate(272,210)"/>
<path d="M0 0 C1.1875 1.6875 1.1875 1.6875 2 4 C0.625 6.75 0.625 6.75 -1 9 C-3 6 -3 6 -3 4 C-2.01 4 -1.02 4 0 4 C0 2.68 0 1.36 0 0 Z " fill="#5BB9CA" transform="translate(495,311)"/>
<path d="M0 0 C0.66 0.66 1.32 1.32 2 2 C0 4 -2 6 -4 8 C-4.33 6.68 -4.66 5.36 -5 4 C-3.35 2.68 -1.7 1.36 0 0 Z " fill="#6A6D6E" transform="translate(127,280)"/>
<path d="M0 0 C0.33 0.99 0.66 1.98 1 3 C-0.98 3.99 -2.96 4.98 -5 6 C-5.66 5.34 -6.32 4.68 -7 4 C-4.69 2.68 -2.38 1.36 0 0 Z " fill="#67696A" transform="translate(42,181)"/>
<path d="M0 0 C0.33 0.99 0.66 1.98 1 3 C-0.32 3.99 -1.64 4.98 -3 6 C-3.33 4.68 -3.66 3.36 -4 2 C-2.68 1.34 -1.36 0.68 0 0 Z " fill="#424647" transform="translate(391,293)"/>
<path d="M0 0 C2.97 0.495 2.97 0.495 6 1 C6 1.99 6 2.98 6 4 C4.68 4.33 3.36 4.66 2 5 C1.34 3.35 0.68 1.7 0 0 Z " fill="#575959" transform="translate(358,295)"/>
<path d="M0 0 C1.32 0.66 2.64 1.32 4 2 C-0.75 6 -0.75 6 -3 6 C-3 3 -3 3 -1.5 1.3125 C-0.7575 0.6628125 -0.7575 0.6628125 0 0 Z " fill="#6C6D6E" transform="translate(138,311)"/>
<path d="" fill="#FFFFFF" transform="translate(0,0)"/>
<path d="" fill="#FFFFFF" transform="translate(0,0)"/>
<path d="" fill="#FFFFFF" transform="translate(0,0)"/>
<path d="" fill="#FFFFFF" transform="translate(0,0)"/>
<path d="" fill="#FFFFFF" transform="translate(0,0)"/>
<path d="" fill="#FFFFFF" transform="translate(0,0)"/>
<path d="" fill="#FFFFFF" transform="translate(0,0)"/>
<path d="" fill="#FFFFFF" transform="translate(0,0)"/>
<path d="" fill="#FFFFFF" transform="translate(0,0)"/>
<path d="" fill="#FFFFFF" transform="translate(0,0)"/>
<path d="" fill="#FFFFFF" transform="translate(0,0)"/>
<path d="" fill="#FFFFFF" transform="translate(0,0)"/>
<path d="" fill="#FFFFFF" transform="translate(0,0)"/>
<path d="" fill="#FFFFFF" transform="translate(0,0)"/>
<path d="" fill="#FFFFFF" transform="translate(0,0)"/>
<path d="" fill="#FFFFFF" transform="translate(0,0)"/>
<path d="" fill="#FFFFFF" transform="translate(0,0)"/>
<path d="" fill="#FFFFFF" transform="translate(0,0)"/>
<path d="" fill="#FFFFFF" transform="translate(0,0)"/>
<path d="" fill="#FFFFFF" transform="translate(0,0)"/>
<path d="" fill="#FFFFFF" transform="translate(0,0)"/>
<path d="" fill="#FFFFFF" transform="translate(0,0)"/>
<path d="" fill="#FFFFFF" transform="translate(0,0)"/>
<path d="" fill="#FFFFFF" transform="translate(0,0)"/>
<path d="" fill="#FFFFFF" transform="translate(0,0)"/>
<path d="" fill="#FFFFFF" transform="translate(0,0)"/>
<path d="" fill="#FFFFFF" transform="translate(0,0)"/>
<path d="" fill="#FFFFFF" transform="translate(0,0)"/>
<path d="" fill="#FFFFFF" transform="translate(0,0)"/>
<path d="" fill="#FFFFFF" transform="translate(0,0)"/>
<path d="" fill="#FFFFFF" transform="translate(0,0)"/>
<path d="" fill="#FFFFFF" transform="translate(0,0)"/>
<path d="" fill="#FFFFFF" transform="translate(0,0)"/>
<path d="" fill="#FFFFFF" transform="translate(0,0)"/>
<path d="" fill="#FFFFFF" transform="translate(0,0)"/>
<path d="" fill="#FFFFFF" transform="translate(0,0)"/>
<path d="" fill="#FFFFFF" transform="translate(0,0)"/>
<path d="" fill="#FFFFFF" transform="translate(0,0)"/>
<path d="" fill="#FFFFFF" transform="translate(0,0)"/>
<path d="" fill="#FFFFFF" transform="translate(0,0)"/>
<path d="" fill="#FFFFFF" transform="translate(0,0)"/>
<path d="" fill="#FFFFFF" transform="translate(0,0)"/>
<path d="" fill="#FFFFFF" transform="translate(0,0)"/>
<path d="" fill="#FFFFFF" transform="translate(0,0)"/>
<path d="" fill="#FFFFFF" transform="translate(0,0)"/>
<path d="" fill="#FFFFFF" transform="translate(0,0)"/>
<path d="" fill="#FFFFFF" transform="translate(0,0)"/>
<path d="" fill="#FFFFFF" transform="translate(0,0)"/>
<path d="" fill="#FFFFFF" transform="translate(0,0)"/>
<path d="" fill="#FFFFFF" transform="translate(0,0)"/>
<path d="" fill="#FFFFFF" transform="translate(0,0)"/>
<path d="" fill="#FFFFFF" transform="translate(0,0)"/>
<path d="" fill="#FFFFFF" transform="translate(0,0)"/>
<path d="" fill="#FFFFFF" transform="translate(0,0)"/>
<path d="" fill="#FFFFFF" transform="translate(0,0)"/>
<path d="" fill="#FFFFFF" transform="translate(0,0)"/>
<path d="" fill="#FFFFFF" transform="translate(0,0)"/>
<path d="" fill="#FFFFFF" transform="translate(0,0)"/>
<path d="" fill="#FFFFFF" transform="translate(0,0)"/>
<path d="" fill="#FFFFFF" transform="translate(0,0)"/>
<path d="" fill="#FFFFFF" transform="translate(0,0)"/>
<path d="" fill="#FFFFFF" transform="translate(0,0)"/>
<path d="" fill="#FFFFFF" transform="translate(0,0)"/>
<path d="" fill="#FFFFFF" transform="translate(0,0)"/>
<path d="" fill="#FFFFFF" transform="translate(0,0)"/>
<path d="" fill="#FFFFFF" transform="translate(0,0)"/>
<path d="" fill="#FFFFFF" transform="translate(0,0)"/>
<path d="" fill="#FFFFFF" transform="translate(0,0)"/>
<path d="" fill="#FFFFFF" transform="translate(0,0)"/>
<path d="" fill="#FFFFFF" transform="translate(0,0)"/>
<path d="" fill="#FFFFFF" transform="translate(0,0)"/>
<path d="" fill="#FFFFFF" transform="translate(0,0)"/>
<path d="" fill="#FFFFFF" transform="translate(0,0)"/>
<path d="" fill="#FFFFFF" transform="translate(0,0)"/>
<path d="" fill="#FFFFFF" transform="translate(0,0)"/>
<path d="" fill="#FFFFFF" transform="translate(0,0)"/>
<path d="" fill="#FFFFFF" transform="translate(0,0)"/>
<path d="" fill="#FFFFFF" transform="translate(0,0)"/>
<path d="" fill="#FFFFFF" transform="translate(0,0)"/>
<path d="" fill="#FFFFFF" transform="translate(0,0)"/>
<path d="" fill="#FFFFFF" transform="translate(0,0)"/>
<path d="" fill="#FFFFFF" transform="translate(0,0)"/>
<path d="" fill="#FFFFFF" transform="translate(0,0)"/>
<path d="" fill="#FFFFFF" transform="translate(0,0)"/>
<path d="" fill="#FFFFFF" transform="translate(0,0)"/>
<path d="" fill="#FFFFFF" transform="translate(0,0)"/>
</svg>